<?xml version="1.0" encoding="utf-8"?>
<!-- Generator: Adobe Illustrator 22.0.0, SVG Export Plug-In . SVG Version: 6.00 Build 0)  -->
<svg version="1.1" id="Layer_1" xmlns="http://www.w3.org/2000/svg" xmlns:xlink="http://www.w3.org/1999/xlink" x="0px" y="0px"
	 viewBox="0 0 804.8 279" style="enable-background:new 0 0 804.8 279;" xml:space="preserve">
<style type="text/css">
	.st0{fill:#FFFFFF;}
</style>
<g>
	<g>
		<polygon class="st0" points="230.4,3.1 230.4,164.1 174,88.5 104.1,88.5 230.3,259.4 287.3,259.4 287.3,3.1 		"/>
		<rect x="2.5" y="173.9" class="st0" width="57" height="85.4"/>
	</g>
	<g>
		<path class="st0" d="M372.7,152.4V88.3h9v64.1H372.7z"/>
		<path class="st0" d="M406.6,152.4h-8.5v-43.5h8.3v6.2c3.2-5.4,8.3-7.5,13.4-7.5c10.4,0,15.5,7.5,15.5,17.2v27.6h-8.5v-26.1
			c0-6.1-2.5-10.9-10.1-10.9c-6.7,0-10.1,5.3-10.1,11.9V152.4z"/>
		<path class="st0" d="M458.3,152.4h-8.5v-43.5h8.3v6.2c3.2-5.4,8.3-7.5,13.4-7.5c10.4,0,15.5,7.5,15.5,17.2v27.6h-8.5v-26.1
			c0-6.1-2.5-10.9-10.1-10.9c-6.7,0-10.1,5.3-10.1,11.9V152.4z"/>
		<path class="st0" d="M542.3,130.6c0,13.3-9.2,23.1-22.2,23.1c-13,0-22.2-9.9-22.2-23.1c0-13.2,9.2-23.1,22.2-23.1
			C533.1,107.6,542.3,117.4,542.3,130.6z M533.7,130.6c0-10-6.3-15.5-13.6-15.5c-7.2,0-13.6,5.4-13.6,15.5
			c0,10.1,6.3,15.6,13.6,15.6C527.3,146.2,533.7,140.8,533.7,130.6z"/>
		<path class="st0" d="M572.6,152.4H564l-17.6-43.5h9.6l12.4,33.5l12.5-33.5h9.1L572.6,152.4z"/>
		<path class="st0" d="M609.1,127.6l11.8-1.7c2.6-0.4,3.3-1.7,3.3-3.3c0-4.2-2.8-7.8-9.4-7.8c-6,0-9.3,3.7-9.9,8.8l-8.1-1.9
			c0.9-8.3,8.4-14.1,17.8-14.1c13,0,18.1,7.4,18.1,15.9v21.8c0,3.8,0.4,6.1,0.5,7.1h-8.3c-0.2-1.1-0.5-2.7-0.5-5.9
			c-1.9,3.1-6.2,7.2-14,7.2c-8.9,0-14.6-6.1-14.6-13C595.9,133,601.6,128.6,609.1,127.6z M624.2,133.8v-2l-13.3,2
			c-3.6,0.5-6.3,2.6-6.3,6.5c0,3.3,2.7,6.3,7.1,6.3C618.6,146.6,624.2,143.3,624.2,133.8z"/>
		<path class="st0" d="M650.4,138.4c0.5,4.5,4,8.1,10.1,8.1c4.8,0,7.4-2.7,7.4-5.8c0-2.7-2-4.8-5.6-5.6l-7.4-1.6
			c-6.8-1.4-10.8-6.1-10.8-12.2c0-7.4,7-13.7,15.5-13.7c11.9,0,15.6,7.8,16.5,11.7l-7.5,2.8c-0.4-2.3-2.2-7.2-9-7.2
			c-4.3,0-7.2,2.8-7.2,5.8c0,2.6,1.6,4.5,5,5.2l7.1,1.5c7.9,1.7,12,6.5,12,12.9c0,6.1-5.2,13.5-15.9,13.5c-11.9,0-17-7.7-17.7-12.7
			L650.4,138.4z"/>
		<path class="st0" d="M688.5,108.9h8.5v48.5c0,7.9-4.5,13.5-12,13.5c-3.3,0-4.5-0.5-5.1-0.6v-7.1c0.5,0.1,1.4,0.3,2.7,0.3
			c4.4,0,5.9-2.4,5.9-6.3V108.9z M692.7,86.2c3.4,0,6.1,2.7,6.1,6.1c0,3.3-2.7,6.1-6.1,6.1c-3.3,0-6.1-2.7-6.1-6.1
			C686.6,88.9,689.4,86.2,692.7,86.2z"/>
		<path class="st0" d="M753.3,130.6c0,13.3-9.2,23.1-22.2,23.1c-13,0-22.2-9.9-22.2-23.1c0-13.2,9.2-23.1,22.2-23.1
			C744.1,107.6,753.3,117.4,753.3,130.6z M744.6,130.6c0-10-6.3-15.5-13.6-15.5c-7.2,0-13.6,5.4-13.6,15.5
			c0,10.1,6.3,15.6,13.6,15.6C738.3,146.2,744.6,140.8,744.6,130.6z"/>
		<path class="st0" d="M773.5,152.4H765v-43.5h8.3v6.2c3.2-5.4,8.3-7.5,13.4-7.5c10.4,0,15.5,7.5,15.5,17.2v27.6h-8.5v-26.1
			c0-6.1-2.5-10.9-10.1-10.9c-6.7,0-10.1,5.3-10.1,11.9V152.4z"/>
	</g>
	<path class="st0" d="M414,259.4l-29.1-45.5v45.5h-12.5v-64.1h15.5l26.7,42.4v-42.4h12.5v64.1H414z"/>
	<path class="st0" d="M484.8,237.1c0,13.7-10,23.6-23.3,23.6s-23.3-9.9-23.3-23.6c0-13.7,10-23.6,23.3-23.6S484.8,223.4,484.8,237.1
		z M472.7,237.1c0-8.4-5.4-12.7-11.3-12.7c-5.9,0-11.3,4.2-11.3,12.7c0,8.3,5.4,12.7,11.3,12.7C467.3,249.8,472.7,245.5,472.7,237.1
		z"/>
	<path class="st0" d="M522.3,226.8c-1.4-0.3-2.5-0.4-3.6-0.4c-6.1,0-11.5,3-11.5,12.6v20.3h-12v-44.5h11.7v6.6c2.7-5.9,8.9-7,12.7-7
		c1,0,1.9,0.1,2.8,0.2V226.8z"/>
	<path class="st0" d="M626.1,246.6c-2.3,7.7-9.3,14.1-20.3,14.1c-12.2,0-23-8.8-23-23.8c0-14.2,10.5-23.4,21.9-23.4
		c13.7,0,22,8.8,22,23.1c0,1.7-0.2,3.5-0.2,3.7h-31.8c0.3,5.9,5.2,10.1,11.2,10.1c5.6,0,8.7-2.8,10.1-6.8L626.1,246.6z M614.9,232.1
		c-0.2-4.4-3.1-8.8-9.9-8.8c-6.2,0-9.7,4.7-9.9,8.8H614.9z"/>
	<path class="st0" d="M540.8,258.9c0.8,4.9,4.7,8.4,10.4,8.4c7.6,0,11.8-3.8,11.8-12.4v-3.3c-1.8,2.9-6,5.7-12.4,5.7
		c-11.8,0-20.7-9.1-20.7-21.6c0-11.8,8.5-21.7,20.7-21.7c7.1,0,11.1,3.1,12.7,6.1v-5.2h11.6v39.7c0,12.2-6.6,23.3-23.3,23.3
		c-12.2,0-20.3-7.6-21.6-16.1L540.8,258.9z M563.3,235.8c0-6.9-4.7-11.2-10.5-11.2c-6,0-10.7,4.3-10.7,11.2c0,7,4.4,11.3,10.7,11.3
		C558.9,247.1,563.3,242.7,563.3,235.8z"/>
</g>
</svg>
